{"accessors" : [{"bufferView" : 0, "byteOffset" : 0, "componentType" : 5123, "count" : 2976, "type" : "SCALAR", "max" : [2975], "min" : [0]}, {"bufferView" : 1, "byteOffset" : 0, "componentType" : 5126, "count" : 2976, "type" : "VEC3", "max" : [49.76525115966797, 187.61065673828125, 16.013187408447266], "min" : [-49.76525115966797, 47.216217041015625, -12.815409660339355], "name" : "POSITION"}, {"bufferView" : 1, "byteOffset" : 12, "componentType" : 5126, "count" : 2976, "type" : "VEC3", "max" : [0.9992790222167969, 0.9968827962875366, 0.9974972605705261], "min" : [-0.9992790222167969, -0.9760013222694397, -0.9995883703231812], "name" : "NORMAL"}, {"bufferView" : 1, "byteOffset" : 24, "componentType" : 5126, "count" : 2976, "type" : "VEC2", "max" : [0.9853094220161438, -0], "min" : [0, -1], "name" : "TEXCOORD_0"}, {"bufferView" : 0, "byteOffset" : 5952, "componentType" : 5123, "count" : 47868, "type" : "SCALAR", "max" : [47867], "min" : [0]}, {"bufferView" : 2, "byteOffset" : 0, "componentType" : 5126, "count" : 47868, "type" : "VEC3", "max" : [50.17970657348633, 187.22164916992188, 17.94659423828125], "min" : [-50.17970275878906, 0.048016056418418884, -13.04665470123291], "name" : "POSITION"}, {"bufferView" : 2, "byteOffset" : 12, "componentType" : 5126, "count" : 47868, "type" : "VEC3", "max" : [1.0000044107437134, 1.0000044107437134, 1.0000044107437134], "min" : [-1.0000044107437134, -1.0000044107437134, -1.0000044107437134], "name" : "NORMAL"}, {"bufferView" : 2, "byteOffset" : 24, "componentType" : 5126, "count" : 47868, "type" : "VEC2", "max" : [1, -0], "min" : [0, -1.0000001192092896], "name" : "TEXCOORD_0"}], "asset" : {"generator" : "Aspose.3D 21.11", "version" : "2.0"}, "buffers" : [{"uri" : "data:application/octet-stream;base64,", "byteLength" : 1728708}], "bufferViews" : [{"buffer" : 0, "byteOffset" : 0, "byteLength" : 101688, "target" : 34963}, {"buffer" : 0, "byteOffset" : 101692, "byteLength" : 95232, "byteStride" : 32, "target" : 34962}, {"buffer" : 0, "byteOffset" : 196928, "byteLength" : 1531776, "byteStride" : 32, "target" : 34962}], "materials" : [{"name" : "", "pbrMetallicRoughness" : {"baseColorFactor" : [0.005604608915746212, 0.005604608915746212, 0.005604608915746212, 1], "metallicFactor" : 0, "roughnessFactor" : 0}, "emissiveFactor" : [0, 0, 0], "alphaMode" : "OPAQUE", "doubleSided" : false}, {"name" : "", "pbrMetallicRoughness" : {"baseColorFactor" : [0.800000011920929, 0.800000011920929, 0.800000011920929, 1], "metallicFactor" : 0, "roughnessFactor" : 0}, "emissiveFactor" : [0, 0, 0], "alphaMode" : "OPAQUE", "doubleSided" : false}], "meshes" : [{"primitives" : [{"attributes" : {"POSITION" : 1, "NORMAL" : 2, "TEXCOORD_0" : 3}, "indices" : 0, "material" : 0, "mode" : 4}, {"attributes" : {"POSITION" : 5, "NORMAL" : 6, "TEXCOORD_0" : 7}, "indices" : 4, "material" : 1, "mode" : 4}], "name" : "Cylinder.002"}], "nodes" : [{"mesh" : 0, "name" : "Cylinder.002"}], "scene" : 0, "scenes" : [{"nodes" : [0]}]}